HIERARCHY
ROOT Hips
{
  OFFSET -278.344 91.0808 -239.152
  CHANNELS 6 Xposition Yposition Zposition Zrotation Xrotation Yrotation
  JOINT ToSpine
  {
    OFFSET -0.0105055 1.38907 -7.13956
    CHANNELS 3 Zrotation Xrotation Yrotation
    JOINT Spine
    {
      OFFSET 0.0105055 10 1
      CHANNELS 3 Zrotation Xrotation Yrotation
      JOINT Spine1
      {
        OFFSET 0 12 1.60637
        CHANNELS 3 Zrotation Xrotation Yrotation
        JOINT Neck
        {
          OFFSET 0 27 2.26658
          CHANNELS 3 Zrotation Xrotation Yrotation
          JOINT Head
          {
            OFFSET 0 9 2.12705
            CHANNELS 3 Zrotation Xrotation Yrotation
            End Site
            {
              OFFSET 0 11 2
            }
          }
        }
        JOINT LeftShoulder
        {
          OFFSET 8 19.6109 2.86452
          CHANNELS 3 Zrotation Xrotation Yrotation
          JOINT LeftArm
          {
            OFFSET 12 1 0.681055
            CHANNELS 3 Zrotation Xrotation Yrotation
            JOINT LeftForeArm
            {
              OFFSET 19 0 -1.52608
              CHANNELS 3 Zrotation Xrotation Yrotation
              JOINT LeftHand
              {
                OFFSET 23 0 0
                CHANNELS 3 Zrotation Xrotation Yrotation
                End Site
                {
                  OFFSET 10 0 0
                }
              }
            }
          }
        }
        JOINT RightShoulder
        {
          OFFSET -8 19.6109 2.86452
          CHANNELS 3 Zrotation Xrotation Yrotation
          JOINT RightArm
          {
            OFFSET -12 1 0.681055
            CHANNELS 3 Zrotation Xrotation Yrotation
            JOINT RightForeArm
            {
              OFFSET -19 0 -1.52608
              CHANNELS 3 Zrotation Xrotation Yrotation
              JOINT RightHand
              {
                OFFSET -23 0 0
                CHANNELS 3 Zrotation Xrotation Yrotation
                End Site
                {
                  OFFSET -10 0 0
                }
              }
            }
          }
        }
      }
    }
  }
  JOINT LeftUpLeg
  {
    OFFSET 9 -7.17245 0
    CHANNELS 3 Zrotation Xrotation Yrotation
    JOINT LeftLeg
    {
      OFFSET 0 -44.1113 0
      CHANNELS 3 Zrotation Xrotation Yrotation
      JOINT LeftFoot
      {
        OFFSET 0 -36.1829 0
        CHANNELS 3 Zrotation Xrotation Yrotation
        JOINT LeftToeBase
        {
          OFFSET 0 -4.84184 13
          CHANNELS 3 Zrotation Xrotation Yrotation
          End Site
          {
            OFFSET 0 1 6
          }
        }
      }
    }
  }
  JOINT RightUpLeg
  {
    OFFSET -9 -7.17245 0
    CHANNELS 3 Zrotation Xrotation Yrotation
    JOINT RightLeg
    {
      OFFSET 0 -44.0551 0
      CHANNELS 3 Zrotation Xrotation Yrotation
      JOINT RightFoot
      {
        OFFSET 0 -36.1469 0
        CHANNELS 3 Zrotation Xrotation Yrotation
        JOINT RightToeBase
        {
          OFFSET 0 -4.92256 13
          CHANNELS 3 Zrotation Xrotation Yrotation
          End Site
          {
            OFFSET 0 1 6
          }
        }
      }
    }
  }
}
MOTION
Frames:	10
Frame Time:	0.0333333
-45.722 74.7252 -10.0782 11.9833 39.4326 -13.9042 0 0 0 20.6849 49.6921 -15.0722 -18.1292 9.81834 1.72662 14.7336 -35.2524 13.047 -18.191 4.81446 15.923 17.0362 -1.43256 -18.4443 -34.0107 -38.7423 -91.2849 8.39069 -10.1318 4.62451 -13.6278 0.638194 -5.33722 8.24806 3.75595 20.0098 15.9629 -27.8568 79.1239 9.65482 -38.6033 13.0037 9.61622 0.022925 0.272543 90.8059 -55.2381 118.43 1.98961e-007 43.427 -14.6454 -8.70358 9.01966 0.687804 0.426634 -2.30696 -1.25754 -79.3825 -75.3763 -62.9665 -1.58583e-006 84.93 15.7764 -27.7814 -23.9103 -5.99493 6.23182 -27.5925 -10.604 
-39.3609 74.8489 -4.1827 11.4489 40.6374 -13.8154 0 0 0 15.8921 50.8724 -13.325 -13.0827 6.31199 0.0553607 1.46732 -18.4247 9.33738 -10.2232 -9.12021 10.5773 5.8791 0.848506 -21.7973 -33.0924 -35.8373 -93.283 6.8006 -4.52193 4.57758 -9.53488 0.4577 -5.48384 9.19478 5.13498 26.7251 12.5522 -28.0295 66.7495 10.9582 -37.7388 16.1544 10.038 0.000363729 0.00414163 97.0073 -56.3019 124.205 -5.16069e-007 56.6931 -11.246 3.85355 9.52737 -0.321253 1.53658 -9.35042 -5.7427 -71.3439 -69.6075 -50.7688 -6.22103e-006 80.7273 17.2174 -22.7233 -24.7354 -5.0457 6.54083 -29.4347 -10.8851 
-33.6635 75.6242 1.89603 11.852 40.5972 -13.9458 0 0 0 8.57784 50.8394 -8.44199 -10.6403 7.79526 0.710339 2.67865 -19.4687 8.74212 -11.2598 -8.48767 10.3331 4.29847 1.23607 -22.4525 -44.471 -28.9288 -99.2853 6.59405 3.34995 -6.20406 -9.95784 0.40227 -4.61505 11.5882 5.16642 23.5462 17.2132 -29.7404 64.4637 8.63992 -34.4707 14.8286 8.11268 -0.0245473 -0.34615 95.9494 -58.0989 124.892 -1.90069e-006 67.5856 -11.0341 7.19696 -3.97324 0.249969 0.857919 -4.02676 -2.89695 -59.1576 -64.5851 -30.9174 9.88969e-007 74.8692 11.8972 -15.3321 -22.71 -3.09671 7.29733 -34.6745 -12.1282 
-28.2956 77.1842 8.00375 10.9066 42.0224 -12.1481 0 0 0 4.51017 47.866 -5.78348 -9.66332 10.3942 1.62921 0.706821 -20.5739 8.83083 -11.1476 -8.75242 10.1005 4.78204 1.16884 -23.4413 -43.9573 -24.0824 -97.8141 5.71169 5.23333 -11.6303 -8.38979 0.286659 -3.90681 12.2756 5.28233 23.2767 20.2697 -32.0211 58.1432 9.30698 -32.1242 17.7963 7.80586 -0.00519114 -0.076089 91.4909 -62.0311 123.193 -9.76305e-007 71.9077 -10.5018 12.7501 -11.4494 1.28344 1.19538 -7.27531 -4.03112 -49.5993 -60.3208 -13.696 6.89511e-007 68.8215 6.09578 -13.8782 -9.73227 -1.18729 8.21436 -44.6428 -15.3229 
-22.4513 79.3865 14.3769 5.00301 42.6952 -6.18249 0 0 0 6.58267 45.3656 -6.65528 -9.26112 11.8078 1.39089 4.84871 -17.3834 9.62321 -14.5333 -12.0095 11.7079 3.24828 1.5281 -23.2887 -43.8538 -18.5137 -95.6599 6.48725 13.0836 -16.8576 -6.99826 0.187107 -3.05922 15.4815 6.26137 24.0614 20.7682 -33.6972 51.8218 10.5408 -30.5037 20.7383 8.18971 0.0102036 0.142526 82.2867 -66.4335 113.789 1.9418e-006 73.7265 -12.2674 15.986 -19.1113 2.7082 1.17284 -5.24283 -4.25335 -39.455 -54.2542 -0.867789 -4.55686e-008 63.5391 3.68107 -15.5738 3.74948 0.51292 6.597 -43.653 -20.2415 
-16.2132 82.1324 20.8473 -4.96701 43.9181 0.482359 0 0 0 8.29084 42.15 -4.67085 -5.56195 12.8306 2.05748 9.70635 -17.818 10.777 -16.2899 -11.7857 13.7069 1.85423 1.82759 -22.8202 -42.7497 -13.7877 -92.0974 6.43758 13.8651 -24.9516 -7.54131 0.0496799 -0.753794 18.02 6.49195 22.4257 24.517 -36.521 46.7214 11.556 -24.8278 26.0173 7.57319 0.106363 1.60696 71.9235 -66.9642 102 2.67234e-006 72.4999 -14.7664 20.8801 -23.8609 4.45896 1.48814 -7.61199 -5.6452 -30.9331 -52.1203 -0.012603 2.1531e-007 60.5917 3.19708 -22.3461 9.10541 1.80211 5.0556 -21.9078 -12.1752 
-10.554 83.9294 27.1144 -12.1643 43.2775 6.25238 0 0 0 8.35455 39.9675 -3.33816 -1.03569 12.3811 1.59512 12.3572 -17.9737 12.6378 -17.194 -11.6653 15.9475 0.993976 1.93892 -21.6805 -39.1715 -8.62584 -87.7666 6.29863 9.70973 -33.2026 -5.72975 0.0992266 -1.98262 19.7877 6.58763 21.2037 25.9626 -38.7008 39.0712 12.0266 -18.0579 34.5 5.97779 0.173218 3.31657 56.2146 -66.4677 85.1352 2.91026e-006 70.507 -16.0092 25.823 -28.4112 6.64242 1.80113 -8.79944 -7.41352 -26.6219 -50.7512 -3.40157 -1.68134e-006 61.6859 21.7863 -28.1748 7.61831 1.91445 4.71515 -18.2956 -5.87681 
-4.94727 85.4446 33.3794 -15.9742 41.7057 9.47025 0 0 0 8.12966 38.7384 -3.00031 1.83976 11.2034 0.750836 13.3161 -17.8809 14.5883 -17.0336 -11.0828 17.9826 1.22597 1.84099 -21.0875 -39.3595 -3.99372 -83.5972 6.5848 6.92471 -43.7548 -4.87106 0.0600579 -1.41194 22.3564 6.88079 20.1674 22.4834 -39.438 29.1621 14.6839 -15.8341 43.8425 5.63503 0.163841 3.32818 38.5279 -63.7901 66.3924 2.0646e-006 67.7726 -15.0975 25.0874 -33.0111 7.54404 2.26393 -7.70884 -10.1022 -21.2456 -52.1406 -5.90969 -2.20465e-006 67.6362 13.3191 -34.2042 2.58739 0.796212 4.98482 -19.9878 -7.81055 
0.76587 86.8734 39.5554 -18.4159 38.88 11.2189 0 0 0 7.70616 38.8736 -3.04487 4.89658 9.40861 -0.606687 12.6015 -16.2495 15.8772 -17.3806 -12.3047 19.2495 1.20894 1.66035 -18.6936 -43.6764 2.39751 -80.7258 11.5717 6.99622 -59.2526 -4.03763 0.0193289 -0.548339 22.6215 6.40119 18.3696 21.9623 -37.9967 22.0899 17.9119 -13.3365 54.4859 4.56645 0.148242 3.71674 24.6122 -57.8734 51.0528 2.26661e-006 64.2385 -13.9967 23.8929 -33.1967 7.21753 2.32154 -11.2913 -10.9929 -14.18 -55.1845 -5.77178 6.88942e-007 73.6982 -7.34289 -33.5974 -8.76966 -2.65221 4.31508 -16.8129 -8.37096 
6.78022 87.6762 45.9504 -19.3956 35.8216 12.1483 0 0 0 9.16975 37.6491 -4.10069 6.58728 9.59854 -2.36148 10.2572 -16.8818 17.4566 -16.2034 -12.2203 20.1739 2.04708 1.43403 -17.8073 -47.1025 5.91892 -76.18 16.7224 3.87664 -77.3179 -2.73686 -0.034888 1.46039 24.2942 6.73936 18.3301 14.3851 -37.4476 11.099 22.0459 -10.2101 66.36 4.14375 0.101728 2.81142 12.9988 -49.5384 38.6508 -6.59526e-008 58.6518 -11.7899 22.7944 -32.7321 6.77587 2.3785 -15.6779 -12.7111 -7.59307 -59.8991 -2.86062 -6.60094e-007 78.2985 -8.84804 -36.9175 -16.0776 -5.39811 4.43377 -17.4795 -8.79699 
